<svg width="517" height="176" viewBox="0 0 517 176" fill="none" xmlns="http://www.w3.org/2000/svg">
<g filter="url(#filter0_d_3227_566)">
<rect x="38.6641" y="28.3281" width="99.3438" height="99.3438" rx="24.8359" fill="#1E40AF"/>
<path d="M47.7837 102.691L65.0337 53.3027H74.1037V62.9546H70.9549L58.6677 102.691H47.7837ZM57.059 90.7121L59.5918 82.9769H82.5918L85.1246 90.7121H57.059ZM83.5502 102.691L71.2629 62.9546V53.3027H77.1841L94.3999 102.691H83.5502Z" fill="white"/>
<path d="M83.9253 102.691V53.3027H92.8926L119.486 91.3282L111.067 85.3043H115.55V53.3027H125.784V102.691H116.885L90.2572 64.4947L98.6426 70.4843H94.159V102.691H83.9253Z" fill="white"/>
</g>
<path d="M163.903 102.496L181.004 54.6726H188.196V63.19H185.71L172.851 102.496H163.903ZM172.553 90.1342L174.839 83.539H196.746L199.033 90.1342H172.553ZM198.735 102.496L185.876 63.19V54.6726H190.615L207.683 102.496H198.735ZM222.829 103.192C220.244 103.192 218.045 102.673 216.233 101.634C214.444 100.574 213.074 99.0604 212.124 97.094C211.174 95.1276 210.699 92.7966 210.699 90.1011V67.3659H218.918V88.444C218.918 90.9407 219.503 92.8739 220.674 94.2438C221.845 95.5916 223.613 96.2655 225.977 96.2655C227.546 96.2655 228.905 95.9119 230.054 95.2049C231.225 94.4758 232.13 93.4705 232.771 92.189C233.412 90.9075 233.732 89.4162 233.732 87.7149V67.3659H241.985V102.496H233.732V96.9946H233.567C232.661 98.8726 231.313 100.375 229.523 101.502C227.734 102.629 225.502 103.192 222.829 103.192ZM261.836 103.192C258.876 103.192 256.302 102.463 254.114 101.005C251.949 99.5244 250.27 97.4144 249.077 94.6746C247.906 91.9349 247.32 88.687 247.32 84.931V84.8978C247.32 81.1197 247.917 77.8718 249.11 75.1542C250.303 72.4145 251.982 70.3155 254.148 68.8572C256.313 67.3769 258.865 66.6368 261.803 66.6368C264.3 66.6368 266.498 67.2443 268.398 68.4595C270.321 69.6526 271.779 71.2987 272.773 73.3977H272.972V54.6726H281.191V102.496H272.972V96.5306H272.773C271.779 98.6075 270.343 100.242 268.465 101.436C266.587 102.607 264.377 103.192 261.836 103.192ZM264.322 96.2655C266.023 96.2655 267.526 95.8015 268.829 94.8735C270.133 93.9455 271.149 92.6309 271.878 90.9296C272.607 89.2284 272.972 87.2288 272.972 84.931V84.8978C272.972 82.6 272.596 80.6115 271.845 78.9323C271.116 77.2311 270.1 75.9164 268.796 74.9885C267.515 74.0605 266.023 73.5965 264.322 73.5965C262.554 73.5965 261.019 74.0605 259.715 74.9885C258.434 75.8943 257.44 77.1869 256.733 78.866C256.048 80.5452 255.705 82.5558 255.705 84.8978V84.931C255.705 87.2509 256.048 89.2615 256.733 90.9628C257.44 92.664 258.434 93.9787 259.715 94.9066C261.019 95.8125 262.554 96.2655 264.322 96.2655ZM288.383 102.496V67.3659H296.635V102.496H288.383ZM292.493 62.3283C291.211 62.3283 290.128 61.8864 289.245 61.0027C288.361 60.1189 287.919 59.0583 287.919 57.8211C287.919 56.5617 288.361 55.5011 289.245 54.6394C290.128 53.7557 291.211 53.3138 292.493 53.3138C293.796 53.3138 294.89 53.7557 295.774 54.6394C296.657 55.5011 297.099 56.5617 297.099 57.8211C297.099 59.0583 296.657 60.1189 295.774 61.0027C294.89 61.8864 293.796 62.3283 292.493 62.3283ZM319.205 103.192C315.758 103.192 312.764 102.463 310.223 101.005C307.682 99.5244 305.705 97.4254 304.291 94.7078C302.899 91.9681 302.203 88.7091 302.203 84.931V84.8647C302.203 81.1086 302.91 77.8718 304.324 75.1542C305.738 72.4145 307.716 70.3155 310.256 68.8572C312.797 67.3769 315.769 66.6368 319.172 66.6368C322.596 66.6368 325.579 67.3769 328.12 68.8572C330.683 70.3155 332.671 72.4034 334.085 75.121C335.499 77.8387 336.206 81.0865 336.206 84.8647V84.931C336.206 88.7312 335.499 92.0012 334.085 94.7409C332.693 97.4586 330.727 99.5465 328.186 101.005C325.645 102.463 322.651 103.192 319.205 103.192ZM319.238 96.5306C320.983 96.5306 322.497 96.0776 323.778 95.1718C325.06 94.2659 326.043 92.9513 326.728 91.2279C327.435 89.4824 327.788 87.3835 327.788 84.931V84.8647C327.788 82.4343 327.435 80.3574 326.728 78.6341C326.021 76.9107 325.016 75.5961 323.712 74.6902C322.431 73.7843 320.917 73.3314 319.172 73.3314C317.47 73.3314 315.968 73.7843 314.664 74.6902C313.383 75.5961 312.378 76.9107 311.648 78.6341C310.941 80.3574 310.588 82.4343 310.588 84.8647V84.931C310.588 87.3835 310.941 89.4824 311.648 91.2279C312.378 92.9513 313.383 94.2659 314.664 95.1718C315.968 96.0776 317.492 96.5306 319.238 96.5306ZM342.338 102.496V54.6726H350.027L377.998 94.9066L369.912 88.212H373.524V54.6726H382.008V102.496H374.386L346.381 62.1626L354.468 68.8241H350.822V102.496H342.338ZM405.174 103.192C401.728 103.192 398.734 102.463 396.193 101.005C393.652 99.5244 391.675 97.4254 390.261 94.7078C388.869 91.9681 388.173 88.7091 388.173 84.931V84.8647C388.173 81.1086 388.88 77.8718 390.294 75.1542C391.708 72.4145 393.685 70.3155 396.226 68.8572C398.767 67.3769 401.739 66.6368 405.141 66.6368C408.566 66.6368 411.549 67.3769 414.089 68.8572C416.652 70.3155 418.641 72.4034 420.055 75.121C421.469 77.8387 422.176 81.0865 422.176 84.8647V84.931C422.176 88.7312 421.469 92.0012 420.055 94.7409C418.663 97.4586 416.697 99.5465 414.156 101.005C411.615 102.463 408.621 103.192 405.174 103.192ZM405.208 96.5306C406.953 96.5306 408.466 96.0776 409.748 95.1718C411.029 94.2659 412.013 92.9513 412.698 91.2279C413.405 89.4824 413.758 87.3835 413.758 84.931V84.8647C413.758 82.4343 413.405 80.3574 412.698 78.6341C411.991 76.9107 410.985 75.5961 409.682 74.6902C408.4 73.7843 406.887 73.3314 405.141 73.3314C403.44 73.3314 401.938 73.7843 400.634 74.6902C399.352 75.5961 398.347 76.9107 397.618 78.6341C396.911 80.3574 396.558 82.4343 396.558 84.8647V84.931C396.558 87.3835 396.911 89.4824 397.618 91.2279C398.347 92.9513 399.352 94.2659 400.634 95.1718C401.938 96.0776 403.462 96.5306 405.208 96.5306ZM440.503 103.192C436.858 103.192 434.14 102.397 432.351 100.806C430.583 99.2151 429.699 96.6079 429.699 92.9844V73.7291H424.728V67.3659H429.699V58.4507H438.084V67.3659H444.613V73.7291H438.084V92.3216C438.084 94.0229 438.46 95.2049 439.211 95.8677C439.984 96.5085 441.111 96.8289 442.591 96.8289C443.011 96.8289 443.376 96.8178 443.685 96.7957C444.016 96.7515 444.326 96.7184 444.613 96.6963V102.894C444.127 102.96 443.53 103.026 442.823 103.093C442.138 103.159 441.365 103.192 440.503 103.192ZM465.061 103.192C461.548 103.192 458.522 102.452 455.981 100.972C453.462 99.4912 451.529 97.3923 450.181 94.6746C448.833 91.957 448.159 88.7423 448.159 85.0304V84.9973C448.159 81.3075 448.833 78.0927 450.181 75.353C451.551 72.5912 453.462 70.448 455.914 68.9235C458.389 67.399 461.305 66.6368 464.664 66.6368C468 66.6368 470.883 67.3769 473.314 68.8572C475.766 70.3155 477.644 72.3703 478.948 75.0216C480.274 77.6729 480.936 80.7662 480.936 84.3013V86.9526H452.236V81.4511H476.992L473.015 86.5881V83.4065C473.015 81.1086 472.662 79.1975 471.955 77.6729C471.248 76.1484 470.276 75.0106 469.038 74.2593C467.801 73.486 466.376 73.0994 464.763 73.0994C463.128 73.0994 461.67 73.4971 460.388 74.2925C459.129 75.0658 458.135 76.2258 457.406 77.7724C456.699 79.319 456.345 81.197 456.345 83.4065V86.5881C456.345 88.7312 456.699 90.5651 457.406 92.0896C458.135 93.592 459.162 94.752 460.488 95.5695C461.814 96.3649 463.393 96.7626 465.227 96.7626C466.597 96.7626 467.801 96.5527 468.84 96.1329C469.878 95.691 470.729 95.1276 471.392 94.4427C472.076 93.7577 472.551 93.0176 472.817 92.2222L472.883 91.9902H480.572L480.506 92.3547C480.218 93.7025 479.688 95.0282 478.915 96.3317C478.141 97.6132 477.103 98.7732 475.799 99.8116C474.496 100.85 472.949 101.679 471.16 102.297C469.37 102.894 467.337 103.192 465.061 103.192ZM499.927 103.192C496.855 103.192 494.226 102.739 492.039 101.833C489.874 100.927 488.172 99.657 486.935 98.022C485.72 96.3649 484.98 94.4537 484.714 92.2884L484.681 91.9902H492.801L492.867 92.2884C493.177 93.813 493.906 94.995 495.055 95.8346C496.226 96.6742 497.861 97.094 499.96 97.094C501.307 97.094 502.456 96.9283 503.406 96.5969C504.356 96.2655 505.086 95.7794 505.594 95.1386C506.124 94.4979 506.389 93.7467 506.389 92.885V92.8519C506.389 91.8134 506.036 90.9738 505.329 90.3331C504.622 89.6702 503.351 89.1289 501.517 88.7091L495.684 87.4166C492.326 86.6875 489.796 85.4944 488.095 83.8373C486.416 82.1802 485.576 80.0481 485.576 77.441V77.4078C485.576 75.2646 486.162 73.3866 487.333 71.7737C488.504 70.1608 490.15 68.9014 492.271 67.9956C494.392 67.0897 496.855 66.6368 499.661 66.6368C502.578 66.6368 505.075 67.1228 507.151 68.095C509.228 69.0671 510.83 70.3707 511.957 72.0057C513.106 73.6407 513.725 75.4745 513.813 77.5072L513.846 77.8718H506.157L506.124 77.6067C505.947 76.1926 505.307 75.0327 504.202 74.1268C503.097 73.1988 501.584 72.7348 499.661 72.7348C498.446 72.7348 497.386 72.9116 496.48 73.2651C495.596 73.6186 494.911 74.1157 494.425 74.7565C493.961 75.3972 493.729 76.1484 493.729 77.0101V77.0433C493.729 78.0375 494.105 78.8771 494.856 79.562C495.629 80.247 496.922 80.7993 498.733 81.2191L504.566 82.5116C508.212 83.3291 510.808 84.5001 512.355 86.0247C513.901 87.5271 514.675 89.5487 514.675 92.0896V92.1227C514.675 94.3322 514.045 96.2765 512.786 97.9557C511.526 99.6128 509.781 100.905 507.549 101.833C505.34 102.739 502.799 103.192 499.927 103.192Z" fill="white"/>
<path opacity="0.9" d="M408.959 148.672V147.352H413.658C415.025 147.352 416.05 147.087 416.733 146.556C417.417 146.019 417.758 145.27 417.758 144.31V144.288C417.758 143.627 417.591 143.067 417.257 142.609C416.93 142.151 416.45 141.806 415.817 141.573C415.185 141.333 414.422 141.213 413.527 141.213H408.959V139.927H413.146C414.353 139.927 415.29 139.672 415.959 139.163C416.635 138.655 416.973 137.939 416.973 137.015V136.994C416.973 136.136 416.668 135.467 416.057 134.987C415.454 134.5 414.614 134.257 413.538 134.257H408.959V132.937H413.844C414.781 132.937 415.596 133.101 416.286 133.428C416.984 133.748 417.522 134.198 417.9 134.78C418.285 135.362 418.478 136.041 418.478 136.819V136.841C418.478 137.422 418.351 137.964 418.096 138.466C417.849 138.96 417.504 139.378 417.06 139.72C416.624 140.054 416.115 140.272 415.534 140.374V140.45C416.268 140.537 416.915 140.752 417.475 141.094C418.042 141.435 418.485 141.882 418.805 142.435C419.125 142.987 419.285 143.623 419.285 144.343V144.365C419.285 145.259 419.074 146.029 418.652 146.676C418.238 147.316 417.627 147.81 416.82 148.159C416.021 148.501 415.036 148.672 413.865 148.672H408.959ZM408.217 148.672V132.937H409.7V148.672H408.217ZM422.48 152.586C422.356 152.586 422.229 152.583 422.098 152.576C421.967 152.568 421.851 152.557 421.749 152.543V151.343C421.829 151.358 421.916 151.369 422.011 151.376C422.105 151.383 422.2 151.387 422.294 151.387C422.898 151.387 423.378 151.253 423.734 150.984C424.097 150.722 424.402 150.242 424.65 149.544L424.933 148.748L420.604 137.157H422.142L425.849 147.81L425.38 147.189H425.98L425.511 147.81L429.218 137.157H430.734L426.1 149.631C425.831 150.344 425.537 150.914 425.217 151.343C424.904 151.78 424.53 152.096 424.094 152.292C423.657 152.488 423.119 152.586 422.48 152.586Z" fill="white"/>
<mask id="mask0_3227_566" style="mask-type:alpha" maskUnits="userSpaceOnUse" x="440" y="132" width="78" height="18">
<path d="M449.854 133.946C450.27 132.504 448.579 131.839 447.886 133.086L440.431 147.887C440.154 148.635 440.846 149.91 441.817 149.91H463.574C464.544 149.91 465.237 148.635 464.96 147.887L457.504 133.086C456.811 131.839 455.121 132.504 455.536 133.946L458.502 145.891C458.696 146.64 458.28 147.832 457.227 147.97H448.164C447.11 147.832 446.695 146.64 446.889 145.891L449.854 133.946Z" fill="#2264B0"/>
<path d="M468.281 147.977V133.93H471.234V147.977H468.281Z" fill="#5979B2"/>
<path d="M472.469 147.977V137.792H475.423V147.977H472.469ZM473.946 136.372C473.403 136.372 472.961 136.214 472.621 135.899C472.28 135.583 472.11 135.192 472.11 134.725C472.11 134.258 472.28 133.867 472.621 133.551C472.961 133.236 473.403 133.078 473.946 133.078C474.489 133.078 474.93 133.23 475.271 133.532C475.612 133.823 475.782 134.201 475.782 134.668C475.782 135.161 475.612 135.571 475.271 135.899C474.943 136.214 474.501 136.372 473.946 136.372Z" fill="#5979B2"/>
<path d="M477.934 147.977V137.565C477.934 136.416 478.275 135.501 478.956 134.82C479.638 134.126 480.61 133.779 481.872 133.779C482.301 133.779 482.711 133.823 483.102 133.911C483.506 133.999 483.847 134.138 484.125 134.328L483.349 136.467C483.184 136.353 483.001 136.265 482.8 136.202C482.598 136.139 482.383 136.107 482.156 136.107C481.727 136.107 481.392 136.233 481.152 136.486C480.925 136.726 480.812 137.092 480.812 137.584V138.53L480.887 139.799V147.977H477.934ZM476.363 140.291V138.019H483.424V140.291H476.363Z" fill="#5979B2"/>
<path d="M488.799 148.129C487.6 148.129 486.666 147.826 485.997 147.22C485.328 146.602 484.993 145.687 484.993 144.475V135.539H487.947V144.437C487.947 144.866 488.06 145.201 488.288 145.441C488.515 145.668 488.824 145.781 489.215 145.781C489.682 145.781 489.629 145.825 490.015 145.635C490.474 146.587 490.819 146.886 491.33 147.447C491.027 147.662 490.534 147.864 490.105 147.977C489.689 148.078 489.253 148.129 488.799 148.129ZM483.422 140.291V138.019H491.933C491.028 138.752 490.598 139.246 490.162 140.291H483.422Z" fill="#5979B2"/>
<path d="M496.215 148.129C495.129 148.129 494.164 147.902 493.318 147.447C492.485 146.993 491.823 146.375 491.33 145.592C490.851 144.797 490.611 143.894 490.611 142.885C490.611 141.862 490.851 140.96 491.33 140.178C491.823 139.382 492.485 138.764 493.318 138.322C494.164 137.868 495.129 137.641 496.215 137.641C497.288 137.641 498.247 137.868 499.092 138.322C499.938 138.764 500.601 139.376 501.08 140.159C501.56 140.941 501.8 141.85 501.8 142.885C501.8 143.894 501.56 144.797 501.08 145.592C500.601 146.375 499.938 146.993 499.092 147.447C498.247 147.902 497.288 148.129 496.215 148.129ZM496.215 145.706C496.707 145.706 497.149 145.592 497.54 145.365C497.931 145.138 498.24 144.816 498.468 144.399C498.695 143.97 498.808 143.465 498.808 142.885C498.808 142.292 498.695 141.787 498.468 141.37C498.24 140.954 497.931 140.632 497.54 140.405C497.149 140.178 496.707 140.064 496.215 140.064C495.722 140.064 495.281 140.178 494.889 140.405C494.498 140.632 494.183 140.954 493.943 141.37C493.716 141.787 493.602 142.292 493.602 142.885C493.602 143.465 493.716 143.97 493.943 144.399C494.183 144.816 494.498 145.138 494.889 145.365C495.281 145.592 495.722 145.706 496.215 145.706Z" fill="#5979B2"/>
<path d="M503.806 147.977V137.565C503.806 136.416 504.147 135.501 504.828 134.82C505.51 134.126 506.482 133.779 507.744 133.779C508.173 133.779 508.583 133.823 508.974 133.911C509.378 133.999 509.719 134.138 509.997 134.328L509.221 136.467C509.056 136.353 508.873 136.265 508.671 136.202C508.47 136.139 508.255 136.107 508.028 136.107C507.599 136.107 507.264 136.233 507.024 136.486C506.797 136.726 506.684 137.092 506.684 137.584V138.53L506.759 139.799V147.977H503.806ZM502.334 140.291C501.984 139.371 501.585 138.874 500.637 138.184L509.296 138.019V140.291H502.334Z" fill="#5979B2"/>
<path d="M510.817 147.977V137.565C510.817 136.416 511.158 135.501 511.839 134.82C512.521 134.126 513.493 133.779 514.755 133.779C515.184 133.779 515.594 133.823 515.985 133.911C516.389 133.999 516.73 134.138 517.008 134.328L516.231 136.467C516.067 136.353 515.884 136.265 515.682 136.202C515.48 136.139 515.266 136.107 515.039 136.107C514.61 136.107 514.275 136.233 514.035 136.486C513.808 136.726 513.695 137.092 513.695 137.584V138.53L513.77 139.799V147.977H510.817ZM509.246 140.291V138.019H516.307V140.291H509.246Z" fill="#5979B2"/>
</mask>
<g mask="url(#mask0_3227_566)">
<rect x="440.287" y="131.02" width="76.731" height="20.2957" fill="white" fill-opacity="0.95"/>
</g>
<defs>
<filter id="filter0_d_3227_566" x="0.564064" y="0.228127" width="175.544" height="175.544" filterUnits="userSpaceOnUse" color-interpolation-filters="sRGB">
<feFlood flood-opacity="0" result="BackgroundImageFix"/>
<feColorMatrix in="SourceAlpha" type="matrix" values="0 0 0 0 0 0 0 0 0 0 0 0 0 0 0 0 0 0 127 0" result="hardAlpha"/>
<feOffset dy="10"/>
<feGaussianBlur stdDeviation="19.05"/>
<feComposite in2="hardAlpha" operator="out"/>
<feColorMatrix type="matrix" values="0 0 0 0 1 0 0 0 0 1 0 0 0 0 1 0 0 0 0.4 0"/>
<feBlend mode="normal" in2="BackgroundImageFix" result="effect1_dropShadow_3227_566"/>
<feBlend mode="normal" in="SourceGraphic" in2="effect1_dropShadow_3227_566" result="shape"/>
</filter>
</defs>
</svg>
